<svg xmlns="http://www.w3.org/2000/svg" viewBox="0 0 64 64" fill="none">
    <!-- Left hemisphere -->
    <path d="M30 12 C20 12 14 18 14 26 C10 28 8 32 8 36 C8 40 10 44 14 46 C14 50 18 54 24 54 C26 56 28 56 30 56 L30 12 Z"
          stroke="currentColor" stroke-width="3.5" stroke-linejoin="round" fill="none"/>
    <!-- Right hemisphere -->
    <path d="M34 12 C44 12 50 18 50 26 C54 28 56 32 56 36 C56 40 54 44 50 46 C50 50 46 54 40 54 C38 56 36 56 34 56 L34 12 Z"
          stroke="currentColor" stroke-width="3.5" stroke-linejoin="round" fill="none"/>
    <!-- Inner detail strokes -->
    <path d="M22 22 C26 24 26 28 22 30" stroke="currentColor" stroke-width="2.5" stroke-linecap="round" fill="none"/>
    <path d="M22 38 C26 40 26 44 22 46" stroke="currentColor" stroke-width="2.5" stroke-linecap="round" fill="none"/>
    <path d="M42 22 C38 24 38 28 42 30" stroke="currentColor" stroke-width="2.5" stroke-linecap="round" fill="none"/>
    <path d="M42 38 C38 40 38 44 42 46" stroke="currentColor" stroke-width="2.5" stroke-linecap="round" fill="none"/>
    <style>
        svg { color: #7C3AED; }
        @media (prefers-color-scheme: dark) {
            svg { color: #A78BFA; }
        }
    </style>
</svg>
